<?xml version="1.0" encoding="UTF-8"?>
<svg
   xmlns="http://www.w3.org/2000/svg"
   width="512"
   height="512"
   viewBox="0, 0, 511, 511">

   <path
      d="m 59.685495,294.87184 0,137.98909 -42.771526,0 0,-365.085527 100.309411,0 q 58.55626,0 90.6349,28.514351 32.33324,28.514346 32.33324,80.451206 0,51.93685 -35.89753,85.03387 -35.64294,33.09701 -96.49053,33.09701 l -48.117965,0 z m 0,-188.39839 0,149.70034 44.808265,0 q 44.29908,0 67.46699,-20.1128 23.4225,-20.36739 23.4225,-57.28329 0,-72.30425 -85.54305,-72.30425 l -50.154705,0 z"
      style="fill:#ff0000" />

   <path
      d="m 494.52934,106.47345 -142.57175,0 0,126.27784 131.87887,0 0,38.44346 -131.87887,0 0,161.66618 -42.77153,0 0,-365.085527 185.34328,0 0,38.698047 z"
      style="fill:#0000ff" />

</svg>
